# File created by Blade
# Date/Time:  Wed Apr 08 14:10:35 2015
# Frame Rate: 120.000 fps
#------------------------------------------------------
:FULLY-SPECIFIED
:DEGREES
242
root 1.844284 32.931210 -19.350821 10.752939 1.578795 -7.686329
Spine -4.782785 -6.325919 3.679022
Head 12.209378 -4.780307 4.087417
LeftShoulder -11.799509 45.155640 10.058843
LeftArm 58.129076 20.309468 -65.322037
LeftForeArm -5.946625 -0.000000 10.559455
LeftHand 4.885330 -0.000000 -10.924434
LeftHandThumb1 -26.253704 0.000000 33.147579
RightShoulder -1.375459 -7.360378 -13.704637
RightArm 19.126750 -23.828224 85.972789
RightForeArm 0.433181 -0.000000 17.293164
RightHand 4.626148 -0.000000 7.432395
RightHandThumb1 -24.326973 -0.000000 -32.862282
LeftUpLeg -11.315112 -0.444260 2.645805
LeftLeg 6.292471 -0.000000 -0.000000
LeftFoot -11.772814 9.852463 -16.678683
LeftToeBase -4.793680 -0.000000 0.000000
RightUpLeg -32.166867 6.806470 4.060260
RightLeg -3.169164 -0.000000 0.000000
RightFoot 26.437373 -19.923795 1.704897
RightToeBase 0.175309 -0.000000 -0.000000
243
root 1.846162 32.929806 -19.334325 10.784394 1.616908 -7.597098
Spine -4.711487 -6.423413 3.563569
Head 12.082072 -4.738561 4.136706
LeftShoulder -11.669423 45.054099 10.225145
LeftArm 58.203564 20.268934 -65.296655
LeftForeArm -5.988256 -0.000000 10.488890
LeftHand 4.930255 -0.000000 -10.685085
LeftHandThumb1 -26.253704 0.000000 33.147579
RightShoulder -1.353440 -7.295100 -13.731017
RightArm 19.119366 -23.816084 85.956404
RightForeArm 0.285981 -0.000000 17.513412
RightHand 4.879981 -0.000000 7.643551
RightHandThumb1 -24.326973 -0.000000 -32.862282
LeftUpLeg -11.248550 -0.263840 2.534312
LeftLeg 6.144449 -0.000000 -0.000000
LeftFoot -11.821246 9.627487 -17.020319
LeftToeBase -4.393633 -0.000000 0.000000
RightUpLeg -33.029888 6.494660 4.062162
RightLeg -3.191689 -0.000000 0.000000
RightFoot 26.709894 -19.601296 1.472848
RightToeBase 0.603756 -0.000000 -0.000000
244
root 1.845665 32.930349 -19.310189 10.800778 1.674747 -7.546777
Spine -4.639705 -6.546153 3.497030
Head 11.990517 -4.719537 4.166294
LeftShoulder -11.585798 44.973964 10.344752
LeftArm 58.285307 20.201894 -65.305998
LeftForeArm -5.998632 -0.000000 10.396347
LeftHand 4.962191 0.000000 -10.564752
LeftHandThumb1 -26.253704 0.000000 33.147579
RightShoulder -1.319157 -7.257188 -13.755405
RightArm 19.148175 -23.787441 85.917097
RightForeArm 0.178889 -0.000000 17.705765
RightHand 4.866101 -0.000000 7.013247
RightHandThumb1 -24.326973 -0.000000 -32.862282
LeftUpLeg -11.124437 -0.152238 2.483864
LeftLeg 5.935512 -0.000000 -0.000000
LeftFoot -11.893590 9.412409 -17.497063
LeftToeBase -3.880703 -0.000000 0.000000
RightUpLeg -33.881816 6.196858 4.100752
RightLeg -3.140316 -0.000000 0.000000
RightFoot 26.827081 -19.260119 1.352850
RightToeBase 0.887201 -0.000000 -0.000000
245
root 1.846028 32.930895 -19.284887 10.818582 1.744806 -7.470097
Spine -4.566099 -6.655675 3.411095
Head 11.879597 -4.714867 4.166660
LeftShoulder -11.433026 44.887330 10.509680
LeftArm 58.360127 20.120263 -65.361983
LeftForeArm -5.943229 -0.000000 10.294585
LeftHand 5.038243 -0.000000 -10.523707
LeftHandThumb1 -26.253704 0.000000 33.147579
RightShoulder -1.310881 -7.219289 -13.793361
RightArm 19.169873 -23.754636 85.903893
RightForeArm 0.145412 -0.000000 17.878969
RightHand 5.030808 -0.000000 6.867284
RightHandThumb1 -24.326973 -0.000000 -32.862282
LeftUpLeg -10.993770 -0.008366 2.404043
LeftLeg 5.709390 -0.000000 -0.000000
LeftFoot -11.942585 9.158656 -17.988655
LeftToeBase -3.303539 -0.000000 0.000000
RightUpLeg -34.632771 6.025698 4.024444
RightLeg -3.300625 -0.000000 0.000000
RightFoot 26.999016 -19.111984 1.159767
RightToeBase 1.218769 -0.000000 -0.000000
